<svg width="84" height="77" viewBox="0 0 84 77" fill="none" xmlns="http://www.w3.org/2000/svg">
<path d="M82.498 38.4836L82.4979 38.4918V38.5C82.4979 58.7104 64.5976 75.5 41.999 75.5C19.62 75.5 1.5 58.9117 1.5 38.5C1.5 18.2896 19.4003 1.5 41.999 1.5C64.6136 1.5 82.7182 18.3002 82.498 38.4836Z" fill="#F48A33" stroke="#F48A33" stroke-width="3"/>
<path fill-rule="evenodd" clip-rule="evenodd" d="M40.3954 31.9637C43.9065 31.9637 46.7527 29.1175 46.7527 25.6065C46.7527 22.0955 43.9065 19.2493 40.3954 19.2493C36.8844 19.2493 34.0382 22.0955 34.0382 25.6065C34.0382 29.1175 36.8844 31.9637 40.3954 31.9637ZM40.3954 35.213C45.701 35.213 50.0019 30.912 50.0019 25.6065C50.0019 20.301 45.701 16 40.3954 16C35.0899 16 30.7889 20.301 30.7889 25.6065C30.7889 30.912 35.0899 35.213 40.3954 35.213Z" fill="white"/>
<path fill-rule="evenodd" clip-rule="evenodd" d="M40.3945 38.4623C33.5797 38.4623 27.8735 43.2085 26.4009 49.5757H54.3881C52.9156 43.2085 47.2093 38.4623 40.3945 38.4623ZM57.7073 49.5757C56.1827 41.4011 49.0112 35.213 40.3945 35.213C31.7778 35.213 24.6064 41.4011 23.0817 49.5757C22.8853 50.6288 22.7826 51.7149 22.7826 52.8249H58.0064C58.0064 51.7149 57.9037 50.6288 57.7073 49.5757Z" fill="white"/>
</svg>
